<?xml version="1.0" standalone="no"?>
<!DOCTYPE svg PUBLIC "-//W3C//DTD SVG 20010904//EN"
 "http://www.w3.org/TR/2001/REC-SVG-20010904/DTD/svg10.dtd">
<svg version="1.0" xmlns="http://www.w3.org/2000/svg"
 width="1em" height="1em" viewBox="0 0 1280.000000 1223.000000" fill="currentColor"
 preserveAspectRatio="xMidYMid meet">
<g transform="translate(0.000000,1223.000000) scale(0.100000,-0.100000)" stroke="none">
<path d="M4840 11300 c-11 -7 -1 -10 35 -10 131 -1 297 -64 385 -146 33 -31
64 -74 88 -123 36 -73 37 -78 37 -185 0 -105 -2 -115 -33 -181 -39 -82 -106
-156 -177 -193 -45 -24 -60 -27 -155 -27 -120 0 -156 14 -222 82 -110 114
-116 264 -14 371 98 105 265 93 317 -21 23 -52 24 -75 3 -127 -41 -102 -178
-115 -199 -19 -13 60 54 111 95 74 11 -10 20 -24 20 -30 0 -7 6 -18 14 -24 10
-9 16 -8 26 4 22 26 14 75 -16 106 -57 60 -140 56 -205 -10 -68 -68 -62 -161
15 -237 90 -91 228 -79 318 26 109 126 55 326 -110 407 -48 24 -70 28 -137 28
-67 0 -89 -4 -137 -28 -69 -34 -121 -90 -160 -173 -27 -59 -30 -72 -26 -152 2
-72 8 -98 34 -153 83 -175 274 -268 462 -226 174 39 293 139 348 293 69 188
25 375 -120 519 -80 80 -162 127 -257 150 -72 17 -206 20 -229 5z"/>
<path d="M6396 10823 c-60 -126 -110 -229 -111 -230 -1 -2 -105 -14 -231 -28
-126 -14 -244 -28 -263 -31 l-34 -6 172 -172 173 -173 -31 -243 c-17 -134 -30
-244 -29 -246 2 -1 106 54 232 123 191 104 232 123 250 115 12 -5 115 -62 231
-125 115 -64 211 -114 212 -113 2 2 -19 110 -47 241 -27 131 -50 246 -50 255
0 8 86 87 191 174 104 87 188 161 185 163 -3 3 -123 16 -267 29 -144 13 -263
25 -264 26 -1 2 -46 102 -100 223 -53 121 -100 226 -104 233 -4 7 -52 -83
-115 -215z"/>
<path d="M8399 10860 c-204 -25 -413 -125 -539 -256 -48 -50 -46 -50 39 4 131
83 314 151 465 172 267 37 525 -63 687 -267 105 -132 156 -268 165 -438 11
-193 -50 -359 -173 -476 -120 -113 -233 -168 -359 -176 -154 -10 -294 45 -410
161 -63 63 -74 80 -93 140 -52 167 -7 355 109 459 62 55 122 77 215 77 114 0
193 -49 246 -151 46 -90 33 -189 -33 -264 -62 -71 -144 -80 -206 -23 -59 56
-65 120 -16 178 34 40 89 42 132 5 36 -30 58 -32 71 -6 26 48 -32 130 -107
151 -159 44 -306 -81 -305 -260 0 -81 18 -125 78 -189 67 -71 128 -96 240 -96
80 0 97 3 150 29 80 40 149 111 188 194 29 61 32 75 32 167 0 92 -3 106 -32
168 -79 166 -254 277 -436 277 -144 0 -285 -58 -387 -160 -120 -119 -165 -244
-157 -435 7 -171 56 -284 178 -405 130 -129 275 -190 474 -198 92 -3 136 0
185 12 264 67 485 286 565 561 35 119 38 279 6 400 -58 221 -212 427 -400 533
-163 91 -387 135 -572 112z"/>
<path d="M9905 10218 c3 -29 8 -63 11 -75 3 -17 -9 -33 -51 -70 -30 -26 -55
-51 -55 -54 0 -3 35 -11 78 -18 l77 -13 31 -76 31 -77 37 73 36 72 77 0 77 0
-57 58 -58 59 16 61 c8 34 18 68 21 77 5 11 -11 7 -61 -15 -37 -16 -71 -30
-76 -30 -6 0 -33 15 -62 33 -29 18 -58 37 -65 41 -10 6 -12 -3 -7 -46z"/>
<path d="M4286 10128 c-3 -29 -6 -94 -6 -144 0 -50 -3 -112 -6 -137 l-6 -45
-155 -107 c-85 -59 -152 -109 -149 -112 3 -3 89 -35 193 -72 l187 -66 45 -193
c26 -106 50 -193 54 -193 5 0 58 69 119 153 61 84 112 155 114 157 2 2 89 -9
194 -24 105 -15 193 -25 196 -23 2 3 -52 79 -120 170 l-125 166 79 179 c43 98
76 179 72 180 -4 2 -89 -22 -190 -51 l-182 -54 -150 134 c-83 74 -152 134
-154 134 -2 0 -6 -24 -10 -52z"/>
<path d="M3245 9435 c-53 -41 -101 -75 -105 -75 -4 0 -53 20 -110 45 -57 25
-105 44 -106 42 -2 -2 12 -52 31 -113 19 -60 35 -110 35 -111 0 -1 -36 -43
-81 -95 l-81 -93 116 -9 116 -8 67 -95 67 -95 38 113 c21 62 41 116 45 120 5
4 59 20 120 36 62 15 113 30 113 33 0 3 -43 36 -95 73 -58 41 -95 74 -95 85 1
9 7 62 14 117 7 55 13 101 11 103 -1 1 -46 -32 -100 -73z"/>
<path d="M1935 9456 c-189 -47 -361 -220 -404 -406 -15 -66 -13 -197 4 -264
52 -197 213 -360 415 -420 85 -26 222 -31 310 -12 84 18 217 79 270 125 l35
31 -76 -35 c-183 -83 -364 -103 -502 -56 -165 56 -281 180 -332 356 -13 44
-16 83 -13 160 4 87 9 111 36 169 39 83 106 150 197 196 64 32 76 35 159 35
78 0 99 -4 148 -27 72 -33 141 -97 169 -155 33 -69 31 -170 -5 -248 -48 -106
-109 -148 -212 -149 -73 0 -122 26 -161 85 -53 80 -31 191 48 233 86 46 179
-52 123 -132 -20 -29 -70 -29 -100 -1 -27 26 -54 19 -54 -13 0 -82 132 -129
211 -75 130 87 109 271 -40 344 -45 22 -142 22 -192 1 -142 -61 -205 -238
-136 -380 69 -140 232 -213 387 -174 122 31 202 96 254 205 29 61 31 74 31
176 0 103 -2 114 -32 178 -91 191 -331 304 -538 253z"/>
<path id="magic-tale-center" d="M7055 9319 l-70 -111 -132 5 c-73 4 -133 3 -133 -2 0 -4 34 -48 75
-97 41 -49 75 -95 75 -102 0 -14 -46 -199 -56 -226 -6 -15 0 -14 46 4 l53 21
-7 -33 c-4 -18 -65 -337 -136 -708 -150 -779 -151 -785 -168 -784 -6 1 -23 2
-37 3 -24 1 -25 3 -20 49 3 26 7 65 10 87 2 22 39 289 80 593 42 305 74 559
71 565 -2 7 -5 3 -5 -8 -1 -19 -6 -20 -113 -13 -62 3 -157 7 -210 7 -84 1 -97
-1 -101 -16 -3 -10 -6 2 -7 27 -1 25 -4 39 -7 31 -3 -7 0 -88 6 -180 6 -91 22
-326 36 -521 13 -195 27 -413 31 -485 l7 -130 -40 -1 -40 -2 -22 157 c-12 86
-37 271 -55 411 -19 140 -34 244 -35 230 -1 -17 -4 -21 -10 -12 -7 11 -21 11
-84 -1 -69 -13 -77 -13 -77 1 0 8 -2 13 -5 10 -3 -3 15 -93 40 -199 75 -315
135 -583 135 -601 0 -10 -9 -18 -22 -20 -21 -3 -26 6 -51 92 -15 52 -79 295
-142 540 -63 245 -129 500 -146 568 -18 68 -36 118 -39 111 -5 -7 -9 -7 -11
-1 -2 6 -37 -1 -86 -17 l-82 -27 -6 24 c-3 14 -8 22 -10 20 -3 -3 63 -200 146
-439 175 -504 310 -902 306 -903 -1 -1 -19 -9 -40 -19 -37 -17 -38 -17 -46 6
-5 12 -21 49 -36 82 -15 33 -113 269 -217 525 -163 399 -229 553 -204 478 3
-10 9 -25 13 -35 4 -11 3 -14 -5 -9 -7 4 -77 -27 -160 -70 -81 -43 -158 -83
-171 -90 -20 -10 -28 -11 -40 -1 -8 7 138 -215 323 -493 223 -332 333 -506
325 -508 -8 -3 -23 -13 -35 -24 -21 -18 -21 -18 -121 109 -54 71 -182 237
-282 371 -101 133 -185 242 -187 242 -3 0 3 -11 12 -25 15 -23 15 -25 1 -19
-22 8 -130 -85 -122 -106 4 -8 -15 5 -42 30 l-48 45 51 -55 c28 -30 140 -150
250 -266 109 -116 240 -255 291 -310 l92 -100 -31 -28 -31 -27 -167 168 c-91
92 -341 346 -555 563 -214 217 -370 374 -346 349 l43 -46 -62 -67 c-49 -51
-60 -69 -51 -79 6 -8 9 -16 6 -19 -6 -6 8 -18 533 -471 227 -196 441 -382 476
-414 l63 -58 -21 -22 -21 -22 -95 71 c-78 59 -733 566 -900 696 -33 26 -39 29
-22 10 13 -14 20 -27 15 -29 -5 -2 -33 -42 -63 -88 -30 -47 -78 -121 -107
-165 -42 -65 -50 -83 -40 -95 9 -10 3 -10 -21 3 -19 10 -36 16 -38 13 -2 -2
110 -59 249 -127 686 -335 917 -451 917 -461 0 -15 -29 -69 -38 -69 -12 0
-202 78 -587 240 -197 83 -359 149 -362 147 -2 -3 10 -10 27 -17 17 -7 27 -16
22 -19 -10 -6 -62 -132 -62 -149 0 -6 6 -13 13 -15 6 -3 -4 -3 -23 0 -19 3
-33 4 -30 1 3 -3 160 -52 350 -108 316 -94 561 -169 601 -185 11 -4 14 -14 11
-31 -2 -13 -6 -24 -9 -24 -14 0 -261 66 -633 170 -656 183 -832 231 -837 226
-2 -2 9 -7 26 -11 36 -8 38 -19 15 -95 -9 -29 -14 -64 -11 -77 3 -19 0 -23
-22 -24 -32 -1 -29 -2 704 -143 330 -64 632 -124 671 -133 l71 -18 -9 -34 -9
-34 -82 7 c-45 4 -361 40 -702 81 -531 63 -809 94 -715 78 l25 -4 -14 -201
c-11 -162 -11 -202 -1 -208 10 -6 8 -9 -6 -13 -34 -9 88 -7 251 3 270 17 983
59 1118 65 l127 7 0 -41 c0 -23 -2 -41 -5 -41 -3 0 -67 -9 -142 -19 -76 -11
-275 -37 -443 -58 -168 -21 -289 -39 -269 -41 36 -3 37 -4 48 -59 6 -31 11
-67 11 -80 0 -15 6 -23 18 -23 14 0 15 -2 2 -10 -8 -5 -12 -10 -7 -10 4 0 179
43 389 95 209 52 389 95 399 95 15 0 38 -36 27 -44 -8 -7 -349 -97 -913 -242
-335 -86 -630 -162 -655 -168 -34 -9 -40 -14 -25 -18 16 -4 26 -24 45 -92 14
-47 29 -86 35 -86 5 -1 -1 -7 -15 -15 -14 -8 -22 -14 -18 -15 3 0 298 102 655
226 654 228 915 316 920 311 1 -2 9 -20 18 -40 14 -34 14 -37 -3 -45 -36 -19
-291 -126 -737 -307 -253 -103 -467 -191 -475 -196 -21 -12 -7 -11 27 2 15 5
24 7 20 3 -6 -6 160 -339 184 -370 5 -6 5 -15 1 -19 -4 -5 -1 -5 6 -1 7 4 9
12 6 18 -4 7 -2 8 4 4 7 -4 244 149 544 349 l532 357 14 -29 c9 -15 16 -29 16
-29 3 -4 -151 -123 -484 -374 -354 -266 -445 -338 -375 -294 16 11 26 13 21 6
-7 -12 26 -60 91 -132 l23 -24 -38 -41 c-43 -47 -4 -11 373 346 154 146 321
302 370 348 l90 82 23 -27 24 -27 -259 -257 c-142 -141 -416 -411 -608 -601
-193 -189 -330 -325 -304 -301 l46 43 68 -70 c38 -38 73 -67 78 -64 14 8 -1
-17 -26 -44 -11 -13 -18 -23 -15 -23 7 0 123 133 573 655 175 204 363 420 418
482 l100 112 28 -22 c16 -11 29 -25 29 -29 0 -12 -95 -137 -417 -551 -145
-186 -261 -342 -258 -347 3 -5 0 -12 -6 -16 -8 -4 -9 -3 -5 4 16 27 -4 9 -30
-26 -26 -34 -26 -35 -3 -15 21 19 27 21 39 9 8 -8 42 -28 75 -46 208 -114 252
-143 248 -160 -2 -8 116 225 262 518 l264 533 28 -18 c15 -9 30 -18 31 -19 6
-4 -69 -175 -222 -503 -81 -173 -144 -316 -142 -318 2 -3 7 5 11 16 6 20 8 20
43 5 73 -31 123 -45 134 -38 8 5 9 2 5 -10 -4 -10 -9 -30 -12 -44 -3 -15 61
170 141 411 l147 438 31 -7 c17 -3 33 -8 35 -10 6 -5 -65 -267 -243 -908 -92
-329 -165 -600 -163 -603 3 -2 8 10 12 28 4 17 10 27 14 21 3 -6 42 -19 86
-29 75 -17 80 -20 85 -48 5 -26 7 -21 17 30 160 837 257 1336 271 1400 l18 80
34 -3 c19 -1 35 -4 36 -5 5 -5 -28 -271 -80 -647 -51 -373 -73 -557 -58 -482
l7 34 188 -1 c146 -1 187 1 188 11 1 7 5 0 9 -17 7 -29 8 -29 9 9 0 21 -12
237 -29 480 -16 243 -31 478 -32 523 l-3 81 34 4 c18 2 35 -1 37 -6 6 -20 43
-289 86 -636 24 -190 44 -330 46 -312 3 29 7 32 35 32 18 0 57 7 87 15 30 8
56 15 58 15 1 0 2 -10 3 -22 0 -13 3 -18 5 -12 2 6 -38 190 -90 410 -109 460
-119 510 -113 528 8 21 55 26 60 7 27 -92 118 -436 224 -846 70 -275 129 -490
131 -478 2 15 12 24 35 28 63 13 127 37 127 48 1 7 7 -1 15 -18 7 -16 14 -27
14 -23 1 4 -86 258 -193 565 -185 532 -256 744 -256 761 0 7 62 35 65 29 8
-12 144 -338 280 -672 155 -380 195 -473 181 -420 -5 17 10 28 97 74 218 114
240 127 243 146 2 11 -120 200 -290 454 -161 240 -302 452 -314 472 l-22 36
24 20 23 21 110 -142 c60 -77 181 -234 267 -348 86 -115 160 -208 163 -208 3
0 -1 8 -9 18 -24 28 -29 40 -15 38 12 -1 84 51 111 81 8 8 21 2 51 -25 l40
-37 -36 40 c-20 22 -125 135 -235 251 -109 116 -236 251 -282 301 l-82 91 27
22 28 22 539 -543 c297 -299 528 -530 513 -514 l-26 30 66 68 c36 37 68 67 71
67 3 0 15 -8 27 -17 92 -76 -116 106 -440 386 -434 375 -681 592 -678 598 1 2
14 18 28 34 l25 31 73 -52 c39 -29 219 -167 399 -307 180 -140 332 -252 337
-249 5 4 13 1 17 -5 4 -8 3 -9 -4 -5 -29 18 -8 -5 31 -34 41 -31 41 -31 9 -2
-22 19 -30 32 -22 37 6 4 15 17 20 28 12 27 156 247 174 265 11 11 18 11 36 2
12 -6 24 -10 26 -8 2 3 -83 47 -189 98 -200 97 -790 390 -795 395 -4 3 29 85
34 85 7 0 278 -107 388 -154 118 -50 120 -50 111 -37 -3 5 -1 12 3 15 5 3 15
26 22 52 8 28 20 49 32 53 14 5 -10 16 -89 40 -251 75 -423 134 -423 145 1 45
8 43 734 -159 230 -64 420 -114 423 -111 2 2 -10 7 -27 11 -23 5 -28 10 -21
19 6 7 17 39 24 72 12 53 16 60 42 64 17 3 -162 42 -456 98 -266 51 -529 103
-584 115 l-100 22 3 35 c2 19 5 36 7 38 5 5 297 -31 645 -78 162 -22 299 -38
305 -36 5 2 0 5 -12 5 -48 2 -48 1 -45 176 3 153 2 165 -15 166 -10 1 -2 5 17
9 l35 7 -40 2 c-22 0 -166 -8 -320 -18 -154 -11 -344 -23 -422 -27 l-143 -7 0
35 c0 35 1 35 58 46 54 11 307 46 532 74 58 7 92 14 76 16 -16 2 -25 7 -19 10
14 9 -4 124 -21 134 -7 5 -4 8 8 8 11 0 17 3 14 6 -3 3 -102 -17 -219 -45
-118 -28 -259 -60 -314 -71 -55 -12 -107 -23 -116 -26 -12 -3 -18 3 -21 25 -4
29 -3 29 81 55 47 14 322 86 611 160 577 149 763 199 710 191 -26 -3 -31 -2
-18 5 15 10 16 14 2 51 -7 23 -14 49 -14 58 0 9 -6 28 -14 43 -14 26 -13 27
21 39 19 6 32 13 30 15 -2 3 -28 -5 -58 -16 -225 -83 -1359 -470 -1378 -470
-12 0 -41 69 -32 75 19 11 192 84 541 227 329 135 420 174 351 153 -16 -5 -21
-4 -17 4 4 6 -27 78 -69 160 -65 126 -80 149 -98 148 -12 -1 -197 -118 -412
-260 l-389 -259 -27 33 -27 33 107 85 c58 46 204 158 324 248 119 90 217 166
217 169 0 3 -4 3 -9 0 -5 -3 -24 13 -42 36 -19 24 -44 53 -57 66 -19 20 -21
26 -10 40 7 10 -64 -55 -157 -144 -263 -249 -398 -374 -424 -392 -22 -15 -25
-15 -43 8 l-19 23 63 65 c35 35 195 195 355 355 161 160 291 293 288 295 -3 3
0 11 6 19 9 10 2 24 -31 61 -24 26 -45 49 -46 51 -2 2 -10 -1 -17 -7 -8 -7
-16 -10 -19 -7 -3 3 -131 -140 -284 -317 -153 -178 -304 -349 -334 -382 -51
-53 -58 -58 -78 -47 -41 22 -98 -60 522 741 27 36 38 55 24 42 -14 -13 -27
-19 -29 -14 -4 10 -104 84 -221 164 -39 26 -58 45 -54 54 28 68 -12 -10 -203
-391 -120 -242 -224 -446 -229 -453 -8 -12 -15 -11 -41 2 -17 9 -31 19 -31 22
0 9 116 294 224 549 59 137 104 256 101 263 -3 7 -1 11 4 8 5 -3 12 1 15 10 9
24 7 31 -4 14 -5 -8 -10 -10 -10 -4 0 7 -36 25 -80 40 -79 28 -80 29 -75 59 9
52 -2 19 -129 -405 -154 -511 -148 -496 -172 -492 -48 9 -59 -41 177 807 94
336 178 640 189 678 10 37 14 65 9 62 -5 -4 -9 -12 -9 -20 0 -11 -18 -9 -87
10 -48 12 -94 21 -102 19 -28 -8 63 36 99 47 33 10 39 8 100 -33 36 -24 82
-55 101 -70 20 -16 39 -28 44 -28 8 0 0 147 -11 221 l-6 36 106 67 c58 37 106
71 106 75 0 4 -42 15 -92 25 -177 33 -163 22 -203 151 -19 62 -35 118 -35 124
0 26 -19 4 -85 -100z m-451 -2324 c186 -43 371 -157 489 -300 251 -304 283
-725 79 -1055 -114 -186 -312 -338 -522 -400 -113 -33 -323 -39 -448 -11 -260
57 -488 234 -607 471 -99 197 -124 390 -79 605 75 358 362 632 734 700 89 17
260 12 354 -10z m2063 -1341 c-3 -3 -12 -4 -19 -1 -8 3 -5 6 6 6 11 1 17 -2
13 -5z m-2790 -2186 c-3 -8 -6 -5 -6 6 -1 11 2 17 5 13 3 -3 4 -12 1 -19z"/>
<path d="M5731 8654 c0 -11 3 -14 6 -6 3 7 2 16 -1 19 -3 4 -6 -2 -5 -13z"/>
<path d="M5741 8614 c0 -11 3 -14 6 -6 3 7 2 16 -1 19 -3 4 -6 -2 -5 -13z"/>
<path d="M9377 8438 c-3 -29 -11 -123 -18 -208 -7 -94 -17 -160 -24 -168 -7
-8 -99 -58 -205 -112 l-193 -97 57 -26 c31 -14 116 -52 189 -83 72 -32 133
-59 135 -60 2 -1 21 -75 42 -165 22 -90 45 -183 52 -206 l13 -42 144 170 c80
93 149 169 155 169 6 0 105 -13 221 -29 115 -16 211 -28 212 -27 2 1 -49 83
-112 182 -63 98 -115 184 -115 189 0 6 45 91 100 189 56 98 99 181 96 184 -3
2 -101 -22 -218 -55 l-213 -61 -156 155 -156 155 -6 -54z"/>
<path d="M6142 8155 c0 -16 2 -22 5 -12 2 9 2 23 0 30 -3 6 -5 -1 -5 -18z"/>
<path d="M5961 8114 c0 -11 3 -14 6 -6 3 7 2 16 -1 19 -3 4 -6 -2 -5 -13z"/>
<path d="M10920 7999 c-217 -43 -389 -299 -352 -525 17 -102 71 -205 146 -279
102 -100 215 -145 365 -145 153 0 278 49 383 151 66 64 63 67 -13 12 -186
-133 -427 -151 -582 -44 -132 91 -204 236 -195 395 6 102 33 162 104 232 76
74 131 99 224 99 181 0 305 -127 286 -292 -12 -105 -68 -172 -157 -192 -73
-16 -133 7 -174 67 -42 61 -31 145 23 190 27 21 80 15 107 -13 61 -60 -4 -148
-74 -99 -46 33 -53 -24 -8 -66 44 -41 157 -16 188 42 37 69 29 145 -22 203
-38 43 -85 58 -160 53 -79 -6 -134 -43 -171 -117 -66 -130 -15 -269 126 -344
64 -34 182 -31 257 5 73 36 126 89 158 157 22 48 26 70 26 146 0 76 -5 99 -27
147 -76 163 -269 254 -458 217z"/>
<path d="M7934 7908 l-19 -23 23 19 c21 18 27 26 19 26 -2 0 -12 -10 -23 -22z"/>
<path d="M4350 7856 c23 -25 60 -52 60 -43 0 2 -19 19 -42 37 -38 29 -40 30
-18 6z"/>
<path d="M7719 7863 c-13 -16 -12 -17 4 -4 16 13 21 21 13 21 -2 0 -10 -8 -17
-17z"/>
<path d="M7871 7835 c-29 -33 -36 -45 -28 -45 2 0 18 18 36 40 40 49 34 53 -8
5z"/>
<path d="M8015 7735 c-38 -36 -65 -65 -59 -65 5 0 39 29 74 65 35 36 62 65 60
65 -3 -1 -36 -30 -75 -65z"/>
<path d="M4370 7646 c0 -2 8 -10 18 -17 15 -13 16 -12 3 4 -13 16 -21 21 -21
13z"/>
<path d="M1595 7421 c-43 -88 -38 -86 -158 -96 l-79 -8 65 -66 65 -66 -12 -87
c-7 -49 -9 -88 -4 -88 4 0 43 20 87 44 l78 43 82 -45 c45 -24 84 -43 86 -41 2
2 -5 44 -15 92 l-18 88 68 57 c38 31 69 60 69 64 1 3 -42 9 -95 13 l-96 8 -39
83 c-21 46 -40 84 -42 84 -1 0 -20 -36 -42 -79z"/>
<path d="M8220 7289 c-22 -18 -22 -19 -3 -10 12 6 25 16 28 21 9 15 3 12 -25
-11z"/>
<path d="M8430 6970 c-8 -5 -10 -10 -5 -10 6 0 17 5 25 10 8 5 11 10 5 10 -5
0 -17 -5 -25 -10z"/>
<path d="M1870 6813 c-340 -37 -583 -251 -655 -577 -26 -115 -17 -283 19 -391
114 -339 446 -574 810 -575 49 0 87 2 84 5 -2 3 -42 12 -88 21 -369 70 -611
257 -696 539 -29 96 -25 277 9 380 77 234 268 410 472 434 84 10 207 -2 280
-28 175 -62 295 -242 295 -447 0 -59 -5 -81 -31 -133 -39 -78 -118 -157 -195
-196 -51 -26 -70 -30 -139 -30 -67 0 -88 5 -130 27 -100 53 -145 124 -145 231
0 109 62 192 163 219 90 24 164 -24 174 -113 4 -35 0 -50 -18 -73 -26 -33 -80
-59 -106 -49 -31 11 -63 46 -63 69 0 53 -31 72 -63 37 -38 -43 -29 -115 20
-174 106 -126 324 -72 388 95 23 59 16 155 -14 214 -88 172 -323 225 -494 111
-220 -145 -211 -498 16 -665 225 -166 517 -123 695 101 141 179 159 394 51
615 -79 160 -248 298 -410 334 -73 16 -178 25 -229 19z"/>
<path d="M3728 6613 c6 -2 18 -2 25 0 6 3 1 5 -13 5 -14 0 -19 -2 -12 -5z"/>
<path d="M8248 6493 c7 -3 16 -2 19 1 4 3 -2 6 -13 5 -11 0 -14 -3 -6 -6z"/>
<path d="M9810 6399 c-63 -55 -129 -112 -147 -126 l-32 -25 -172 52 c-94 28
-182 55 -195 60 -13 5 -24 6 -24 1 0 -7 78 -205 124 -311 l15 -36 -95 -159
c-52 -88 -94 -163 -94 -167 0 -10 -2 -10 185 7 246 23 205 40 347 -144 67 -88
124 -158 125 -157 2 2 20 89 42 195 21 105 40 194 43 196 3 3 87 30 188 60
101 30 185 56 186 58 2 2 -80 48 -181 102 l-185 100 -1 190 c-1 105 -1 193 0
198 3 18 -21 0 -129 -94z"/>
<path d="M3648 6423 c7 -3 16 -2 19 1 4 3 -2 6 -13 5 -11 0 -14 -3 -6 -6z"/>
<path d="M8308 6333 c6 -2 18 -2 25 0 6 3 1 5 -13 5 -14 0 -19 -2 -12 -5z"/>
<path d="M8548 6213 c7 -3 16 -2 19 1 4 3 -2 6 -13 5 -11 0 -14 -3 -6 -6z"/>
<path d="M3633 5973 c15 -2 37 -2 50 0 12 2 0 4 -28 4 -27 0 -38 -2 -22 -4z"/>
<path d="M8558 5833 c7 -3 16 -2 19 1 4 3 -2 6 -13 5 -11 0 -14 -3 -6 -6z"/>
<path d="M4398 5673 c7 -3 16 -2 19 1 4 3 -2 6 -13 5 -11 0 -14 -3 -6 -6z"/>
<path d="M8748 5643 c6 -2 18 -2 25 0 6 3 1 5 -13 5 -14 0 -19 -2 -12 -5z"/>
<path d="M10960 5601 c-231 -62 -423 -261 -491 -508 -23 -84 -30 -222 -15
-308 9 -49 10 -48 22 67 26 235 81 367 203 489 143 142 320 195 516 154 179
-38 341 -165 391 -307 41 -116 37 -273 -7 -361 -32 -63 -115 -144 -181 -176
-131 -66 -225 -63 -336 8 -132 86 -186 230 -131 351 43 95 107 134 209 128 82
-4 132 -37 162 -105 34 -77 1 -152 -73 -168 -58 -13 -119 35 -119 93 0 22 40
62 62 62 9 0 22 7 29 16 11 14 10 19 -10 35 -31 25 -71 24 -111 -3 -50 -34
-72 -71 -78 -126 -6 -65 10 -111 55 -157 46 -47 94 -68 159 -67 188 1 303 212
216 397 -53 111 -155 175 -280 175 -221 0 -382 -170 -382 -404 0 -183 113
-334 300 -403 126 -46 244 -37 379 28 260 128 371 418 268 702 -71 195 -231
341 -432 392 -81 20 -242 19 -325 -4z"/>
<path d="M8078 5563 c7 -3 16 -2 19 1 4 3 -2 6 -13 5 -11 0 -14 -3 -6 -6z"/>
<path d="M8020 5425 c14 -8 30 -14 35 -14 6 0 -1 6 -15 14 -14 8 -29 14 -35
14 -5 0 1 -6 15 -14z"/>
<path d="M3608 5393 c7 -3 16 -2 19 1 4 3 -2 6 -13 5 -11 0 -14 -3 -6 -6z"/>
<path d="M1065 4818 l7 -125 -88 -78 c-49 -43 -90 -82 -92 -85 -1 -4 56 -20
127 -35 l130 -28 43 -124 c24 -67 45 -123 48 -123 3 0 32 48 65 108 l60 107
134 3 133 3 -95 98 -96 99 24 78 c14 44 32 100 39 126 l15 48 -37 -16 c-20 -9
-74 -31 -120 -50 l-83 -35 -110 77 -111 77 7 -125z"/>
<path d="M3106 4715 c-88 -69 -160 -125 -161 -125 -1 0 -82 34 -180 75 -99 41
-181 73 -183 71 -2 -2 22 -83 52 -179 31 -96 56 -181 56 -188 -1 -8 -59 -81
-130 -164 -151 -177 -159 -162 86 -164 l160 -1 108 -150 c60 -83 112 -153 116
-155 5 -3 37 82 72 187 l65 193 196 50 c108 28 197 52 197 55 0 3 -74 56 -163
118 -148 103 -163 116 -160 140 2 15 12 99 23 187 23 184 22 175 13 175 -5 -1
-80 -57 -167 -125z"/>
<path d="M9846 4310 c-63 -16 -155 -71 -193 -114 -20 -23 -47 -66 -62 -96 -23
-49 -26 -67 -26 -160 0 -99 2 -110 33 -172 39 -79 125 -164 205 -201 69 -33
174 -51 235 -41 l47 8 -70 8 c-130 15 -241 65 -303 136 -13 15 -35 50 -50 77
-24 45 -27 60 -27 150 0 115 17 164 81 235 56 62 122 90 212 90 83 0 122 -14
171 -62 97 -95 103 -217 15 -305 -76 -75 -171 -79 -233 -8 -25 29 -31 45 -31
81 0 39 5 51 34 80 26 26 42 34 69 34 58 0 89 -67 49 -103 -29 -27 -59 -21
-77 14 -13 25 -19 28 -31 18 -30 -25 -11 -80 36 -104 87 -45 190 29 177 128
-10 76 -68 128 -150 135 -112 9 -197 -72 -197 -188 0 -158 157 -266 321 -220
50 14 125 82 157 144 75 144 -3 340 -166 416 -52 25 -166 35 -226 20z"/>
<path d="M4919 4173 c-13 -16 -12 -17 4 -4 16 13 21 21 13 21 -2 0 -10 -8 -17
-17z"/>
<path d="M7670 4131 c5 -11 15 -23 21 -27 6 -3 3 5 -6 20 -20 30 -30 35 -15 7z"/>
<path d="M4499 3933 c-13 -16 -12 -17 4 -4 9 7 17 15 17 17 0 8 -8 3 -21 -13z"/>
<path d="M6512 3755 c0 -16 2 -22 5 -12 2 9 2 23 0 30 -3 6 -5 -1 -5 -18z"/>
<path d="M5297 3755 c-3 -11 -11 -51 -18 -89 l-13 -69 -62 -28 c-33 -15 -73
-31 -88 -35 -14 -3 -26 -9 -26 -13 0 -3 35 -25 78 -48 l78 -42 13 -92 13 -92
72 71 71 70 80 -19 c44 -10 86 -18 92 -18 8 -1 -4 33 -29 82 l-41 84 47 73
c26 40 45 75 42 78 -3 2 -45 -3 -93 -13 l-87 -17 -62 68 c-52 58 -62 65 -67
49z"/>
<path d="M7051 3584 c0 -11 3 -14 6 -6 3 7 2 16 -1 19 -3 4 -6 -2 -5 -13z"/>
<path d="M8030 3421 l-95 -169 -160 -6 c-88 -4 -181 -9 -207 -12 l-47 -6 112
-125 c62 -68 118 -133 125 -143 12 -16 8 -46 -22 -201 -19 -101 -34 -185 -31
-187 2 -2 84 33 181 78 98 45 185 80 193 77 9 -2 88 -50 175 -105 88 -56 161
-100 163 -98 2 2 -7 85 -22 184 -14 100 -25 188 -25 196 0 8 69 65 153 126 83
62 153 115 155 119 1 4 -64 17 -145 29 -82 13 -174 28 -205 34 l-56 10 -50
132 c-27 72 -58 155 -68 184 -10 28 -21 52 -24 52 -3 0 -48 -76 -100 -169z"/>
<path d="M4115 3184 c-43 -141 -84 -262 -90 -269 -5 -7 -127 -43 -270 -80
-143 -36 -269 -69 -279 -74 -16 -6 21 -37 200 -167 l219 -160 3 -205 c1 -112
3 -237 5 -278 l2 -73 233 176 c128 97 236 176 240 176 4 0 126 -45 272 -100
145 -54 266 -97 268 -95 3 2 -39 124 -93 270 l-97 265 159 176 c180 201 217
244 212 247 -2 2 -136 -4 -298 -13 l-295 -15 -61 95 c-33 52 -101 159 -150
237 -50 79 -92 143 -95 143 -3 0 -41 -115 -85 -256z"/>
<path d="M5861 3374 c0 -11 3 -14 6 -6 3 7 2 16 -1 19 -3 4 -6 -2 -5 -13z"/>
<path d="M9736 3171 l-57 -179 -197 -49 -197 -49 140 -104 c77 -57 144 -107
149 -111 4 -4 11 -91 15 -194 l6 -187 158 116 158 117 182 -70 c99 -39 183
-68 185 -66 2 2 -25 85 -60 184 l-65 180 129 140 c70 77 128 142 128 146 0 3
-15 4 -32 1 -18 -3 -110 -8 -204 -11 l-171 -6 -99 160 c-54 89 -102 161 -105
161 -3 0 -31 -80 -63 -179z"/>
<path d="M3043 2820 c9 -14 33 -49 54 -79 93 -138 126 -312 84 -449 -74 -246
-372 -382 -593 -271 -50 25 -132 111 -158 164 -46 95 -34 213 32 311 44 65
100 95 188 102 54 4 76 0 115 -17 61 -27 82 -45 106 -93 54 -106 -9 -233 -122
-245 -51 -6 -105 24 -127 69 -23 49 17 108 72 108 56 0 84 -51 51 -94 -18 -24
-11 -36 20 -36 58 0 85 102 45 168 -22 37 -88 71 -134 72 -78 0 -155 -72 -170
-160 -10 -57 19 -135 65 -180 124 -120 314 -77 400 90 35 68 33 176 -4 252
-56 115 -149 178 -272 186 -194 12 -340 -100 -391 -301 -44 -168 25 -340 179
-448 98 -69 180 -93 300 -87 82 3 102 8 171 41 142 67 246 193 281 338 45 191
-12 396 -146 524 -34 33 -55 49 -46 35z"/>
<path d="M6160 2179 c-96 -15 -213 -81 -299 -168 -136 -136 -191 -259 -199
-441 -5 -139 9 -207 69 -328 80 -158 232 -290 400 -347 69 -23 107 -29 209
-32 147 -6 257 15 376 72 84 40 195 125 243 185 l34 43 -81 -57 c-97 -68 -242
-138 -337 -162 -107 -27 -250 -23 -350 10 -199 64 -351 230 -405 442 -51 198
-1 376 141 508 156 144 310 170 493 83 136 -65 195 -150 204 -294 11 -188 -90
-323 -254 -339 -52 -5 -66 -2 -114 23 -132 68 -169 215 -79 318 71 80 199 38
199 -65 0 -80 -67 -115 -131 -68 -26 20 -31 20 -45 7 -21 -21 -10 -60 27 -95
56 -53 183 -41 241 23 9 10 26 39 37 63 76 167 -62 342 -257 328 -147 -11
-254 -111 -281 -265 -38 -205 131 -399 356 -411 329 -17 555 299 443 622 -84
246 -354 391 -640 345z"/>
<path d="M7798 1933 l-97 -97 -123 28 c-68 15 -133 30 -146 33 -20 5 -17 -5
37 -117 l60 -123 -60 -119 c-33 -66 -58 -122 -56 -125 3 -2 58 5 124 17 66 11
131 20 144 19 17 0 50 -30 117 -105 51 -59 94 -99 96 -92 2 7 11 69 20 138 9
68 20 128 24 132 4 4 57 26 117 48 152 58 149 54 85 83 -30 13 -92 41 -137 61
l-81 38 -7 106 c-4 59 -10 122 -14 140 l-6 32 -97 -97z"/>
</g>
</svg>
