<svg
      xmlns="http://www.w3.org/2000/svg"
      width="1em"
      height="1em"
      version="1"
      viewBox="0 0 960 1280"
      fill="currentColor"
      class="saxophone-cat"
    >
      <path
        d="M4192 12468c-86-42-135-365-162-1068-6-140-12-261-15-267-2-7-14-13-25-13s-20-7-20-15 9-15 20-15c12 0 20-7 20-17-1-52-35-152-80-230-96-168-112-243-140-693-28-426-94-649-250-835-25-30-122-141-217-249-445-504-579-705-706-1068-137-388-167-647-101-875 44-155 134-291 267-405 75-65 251-184 329-224 99-50 108-174 34-480-70-289-77-356-79-689-1-172 4-339 11-410 24-224 63-509 103-745 22-129 40-241 42-249 3-23-111-77-192-92-55-9-89-10-142-2-68 11-93 22-289 124-99 52-210 79-319 79-151-1-217-52-207-159 6-66 74-213 134-287 52-66 146-128 236-157 65-20 90-22 281-21l210 1 141 46c173 56 204 62 226 45 11-8 42-95 82-228 36-118 73-240 84-270 52-147 125-288 184-356l30-34-26-132c-14-72-31-185-38-250-28-286 46-525 231-747 72-88 102-153 232-506 98-266 197-433 312-526 78-62 201-118 289-128 143-18 219 4 316 93 139 128 120 263-83 591-80 128-149 271-164 335-6 25-11 68-11 95v50l194 190c250 245 305 320 366 500 15 44 39 112 54 152 36 99 53 227 66 501 14 299 34 409 99 524 30 55 41 60 41 19 0-45 53-245 95-356 49-130 104-240 172-344 70-105 91-159 99-258 7-95-10-219-65-457-78-339-88-437-64-679 20-208 77-292 362-531 79-67 148-128 152-136s11-32 14-53c4-27 19-51 49-81 158-159 539-168 625-15 19 34 22 50 18 90-8 69-39 119-183 304-202 258-255 365-256 515 0 91 14 154 52 240 16 36 35 107 44 162 27 168 99 365 230 627 130 260 181 376 276 636 19 52 34 269 34 505 1 169-30 247-220 552-110 176-172 302-194 395-6 29-13 99-15 155-1 57-6 148-10 203-24 310 87 617 290 803 113 104 172 118 351 83 153-29 198-28 229 5 14 15 27 43 30 63 4 20 8 44 10 53 6 34-16 170-42 251-31 100-75 190-161 327-161 259-265 400-393 535l-70 73 25 37c56 83 87 204 105 415 17 205-8 368-89 571-51 126-208 442-270 539-67 105-238 442-245 483-5 27 0 46 24 89 41 73 42 141 4 224-22 48-27 74-27 134-1 93 25 151 139 320 42 63 88 136 101 162 34 67 61 173 69 272l7 86 32-22c49-35 142-126 172-169 17-25 31-36 37-30 21 21-102 158-205 229-42 29-48 37-48 69 0 20-5 76-11 125-7 49-9 91-6 94s23-4 45-15c27-14 43-17 47-10 9 13 11 11-52 43l-53 26v118c1 139 10 185 50 251 41 66 104 235 137 368 23 90 27 130 28 243 0 152-10 185-68 221-43 27-116 20-199-19-35-17-88-41-118-54-30-14-123-65-205-115-180-108-232-135-308-159-57-18-58-18-130 6-151 49-177 52-537 58-302 6-349 9-372 24-59 39-158 142-296 308-234 280-330 373-493 470-90 55-85 53-117 38zm187-145c87-52 160-135 304-346 206-304 326-410 466-411l65-1 106-147c58-81 107-147 110-148 3 0 19 66 34 148 33 165 35 174 46 167 4-3 31-101 60-217 28-117 53-220 57-228 3-8 38 82 79 200s77 216 79 219c3 2 7 2 10-1 5-5 34-239 35-275 0-7 3-13 8-13 4 0 51 49 106 109 68 75 103 107 115 104 28-7 109 29 273 120 388 215 532 264 593 202 20-19 25-34 25-77 0-116-36-238-174-593-45-117-80-244-91-335l-5-45-153-1c-128 0-170-4-262-26-149-35-285-86-279-103 4-10 18-8 65 11 33 14 113 39 177 56 107 28 131 31 280 32 179 1 182 0 182-61 0-18 11-67 25-110 13-42 22-79 20-81s-38 8-80 23c-87 30-229 60-327 70-59 6-68 5-68-9 0-12 10-16 39-16 68 0 213-29 329-66 131-42 129-39 112-164-39-287-221-460-399-380-24 11-64 37-90 58-25 21-93 61-151 89-219 107-390 249-429 356-24 67-28 162-7 210 7 18 32 49 55 69l42 36-17 41c-45 112-151 106-231-13-18-26-38-65-44-86-11-35-9-41 30-106 52-86 51-112-4-129-27-8-66-37-119-89-44-42-92-84-107-93-37-22-56-59-43-81 21-33 50-25 108 27 31 28 62 51 69 51s23-13 34-28c12-16 122-96 245-177 328-218 431-330 431-469 0-51-28-133-57-166-7-8-26-71-41-140-83-380-233-821-470-1385-53-126-117-281-143-343-25-61-49-109-53-105-4 5-285 428-624 942-352 532-634 969-656 1015-40 86-92 253-85 271 2 6 35 20 73 30 118 31 117 27 29 107-95 87-136 154-136 222 0 69 18 86 90 86 31 0 71-5 88-11s41-9 53-7c20 3 12 13-60 83-45 44-89 92-97 107-21 41-17 90 12 133 36 54 63 73 112 81 40 6 42 8 42 41 0 18-9 51-20 73s-20 43-20 48c0 12 189 70 285 87 104 19 292 19 380 0 38-8 102-30 141-49 54-26 74-31 78-21 6 15-101 66-189 90-151 41-379 27-580-36-140-43-143-43-178 12l-29 47 31 106c16 58 33 121 37 141l7 37 71-7c85-8 252-51 548-138 119-36 220-62 223-59 13 14 0 23-62 41-38 11-160 47-273 80-237 70-311 88-417 101-42 6-78 12-80 14s3 53 11 112c20 149 36 456 39 779 3 229 6 275 20 302 30 56 78 57 166 6zm1384-2104c133-68 374-244 451-329 50-57 52-63 39-192l-6-68-23 50c-47 102-183 218-462 395-78 49-142 93-142 96 0 6 90 69 98 69 1 0 22-10 45-21zm667-584c9-19 15-59 15-105 0-135-48-195-178-222-98-21-98-1-2 127 35 46 56 87 64 121 16 66 46 116 69 112 9-2 24-17 32-33zm-2582-236c17-18 47-63 67-100l36-69-50 20c-104 40-121 50-146 74-24 25-25 27-10 55 15 30 40 50 61 51 7 0 25-14 42-31zm2621-113c7-8 11-32 9-53-3-41-19-50-64-39-31 8-33 51-2 83 25 27 41 29 57 9zm-190-116c30-31 51-83 51-130 0-50-42-103-105-136-89-47-105-50-105-22 0 13 7 45 15 72s15 70 15 95c0 131 61 188 129 121zm-184-206c-14-71-41-174-59-229-21-61-36-133-41-184-11-130-47-238-154-456-54-110-106-222-116-250-25-67-31-72-44-34-10 30-7 40 33 118 148 289 287 681 321 909 22 145 34 197 59 262 20 52 21 53 24 24 2-17-9-89-23-160zm-2052 83c20-40 58-98 84-128 207-242 696-943 1022-1467l133-212-21-83c-11-45-34-143-50-217-51-228-92-340-143-386-40-38-61-38-140-1-68 32-162 69-543 212-202 77-398 172-516 250-139 93-142 98-136 215 7 130 35 211 167 475 60 121 112 232 116 247 6 27 5 28-27 22-66-13-153-66-219-133-180-183-263-526-184-763 18-54 80-153 115-184 13-11 76-37 139-57 63-21 180-71 260-111s213-107 295-149c206-104 311-139 447-146 100-6 109-8 136-34 44-42 85-140 86-206 1-81-22-81-73 1-69 110-70 110-71 58 0-24 9-111 21-193 11-82 18-151 16-154-3-2-32 48-64 113s-64 120-70 122c-10 3-13-28-14-130-1-195-20-237-107-238-74 0-132 57-218 215-33 60-68 111-79 116-11 4-128 43-260 85-248 79-402 135-563 206-106 46-112 54-112 149 0 133 35 189 116 189 30 0 44 4 44 13 0 19-39 53-75 67-46 18-209 13-305-9l-85-20-93 93-93 93 93 38c178 72 318 161 359 228 28 46 25 102-7 134-25 25-29 25-122 21-82-4-115-12-217-48-96-35-132-43-182-43-94 2-153 42-153 105 0 14 14 79 30 143 17 64 30 127 30 141 0 29-2 29 102 5 189-44 362-51 441-18 79 34 102 106 51 166-52 62-234 128-442 161-64 11-74 15-87 40-58 113 1 234 149 307l54 26 103-46c197-88 367-119 438-82 40 20 57 66 41 105-29 70-179 169-349 230-71 25-78 31-103 76-15 27-28 56-28 65 0 30 37 49 121 64l84 15 29-37c51-66 180-188 218-206 50-23 93-22 118 5 44 47 19 116-92 254-107 133-128 165-128 191 0 37 39 45 235 50 219 5 225 6 225 38 0 41 13 29 53-48zm2385-138c3-33 0-38-29-48-53-18-65 8-28 60 28 40 53 34 57-12zm162-151c11-18 20-43 20-56s15-50 33-83l32-59-69-135c-37-74-71-135-75-135-3 1-28 39-56 86-27 47-78 120-112 161-35 42-63 79-63 84 0 15 132 128 173 148 62 31 93 28 117-11zm-370-25c-1-53-11-63-61-63-51 0-63 8-53 34 15 39 114 64 114 29zm-90-163c22-11 40-25 40-30 0-14-35-30-67-30-34 0-53 16-53 45 0 41 21 45 80 15zm146-192c210-78 313-386 205-613-44-91-69-116-124-125-66-10-163 6-225 36-61 30-81 60-66 102 8 23 19 29 82 43 40 9 75 19 78 22 13 12-10 27-89 57-102 39-139 66-139 104 0 35 24 58 82 79 69 26 110 54 110 76 0 13-24 40-62 71-72 59-108 105-108 136 0 45 150 52 256 12zm445-119c133-11 135-12 151-40l17-28-132-111c-72-60-135-110-139-110-5 0-8 15-8 33 0 43-32 168-59 230l-21 49 28-6c15-2 88-10 163-17zm175-397c42-21 114-96 114-116 0-6-56-47-125-91l-124-80 129-90c81-56 128-95 125-103-9-23-44-216-47-255l-3-37-55 46c-145 120-367 247-489 278-129 33-179 67-150 102 17 21 111 68 180 89 51 16 60 23 89 71 32 53 70 159 70 196 0 19 5 20 123 16 101-3 129-7 163-26zm-1008-20c34-22 111-129 148-207 39-81 41-91 15-105-32-16-65 3-152 90-44 44-84 80-89 80-15 0-22 77-11 118 15 54 33 59 89 24zm-173-228c53-25 262-194 240-194-3 0-50 11-103 24-212 54-292 41-292-46 0-18-8-26-41-36-44-14-58-10-41 10 5 7 15 42 22 77 30 167 99 220 215 165zm425-264c27-17 18-118-18-194-29-62-33-66-64-66-21 0-57 14-98 40-35 22-98 53-140 70-77 31-130 70-130 95 0 22 65 35 124 24 62-11 99-25 151-57l39-25 15 24c21 32 86 99 97 99 5 0 16-5 24-10zm507-160c98-51 136-88 179-172 58-115 78-205 79-348 0-115-2-128-25-169-14-24-38-54-53-65l-28-21-34 40c-90 106-233 385-275 536-27 98-27 192 0 219 30 30 70 25 157-20zm-979-14c88-24 194-92 361-234 41-35 28-48-26-28-62 23-412 171-488 206-38 17-81 37-95 42l-25 11 25 7c42 13 192 10 248-4zm756-241c60-166 205-459 340-691 72-123 109-198 117-235 24-109-10-296-91-504-42-106-100-233-322-700-58-121-145-305-192-410-151-329-259-497-384-600-73-61-171-115-252-140-102-32-617-40-627-10-2 6 34 29 79 50 123 60 190 113 222 176 14 29 26 63 26 76s-27 105-61 205c-56 166-61 188-57 250 2 37 8 72 14 78s23 6 49-2c22-6 83-12 135-12 82 0 103 3 151 26 124 57 163 191 99 338-16 38-30 76-30 85 0 28 29 73 66 101 21 17 34 34 31 43-3 14 6 16 67 13 84-4 127 11 188 66 55 49 78 102 78 179 0 80-10 105-73 172-29 32-65 84-82 116-27 55-30 69-29 155 0 102 18 156 84 260 15 25 34 65 40 90 21 78 64 169 179 374 146 262 151 278 161 451 5 77 9 142 9 145 3 15 24-31 65-145zm-1015 27c-16-83-79-264-133-378-59-122-120-224-136-224-19 0-10 79 24 197 43 147 90 259 149 355 82 130 113 147 96 50zm391-31c72-21 143-73 169-124 23-45 24-52 12-95-6-26-25-64-42-84-16-20-29-41-29-47s-8-14-17-19c-22-11-48-2-178 64-119 61-156 74-218 76-45 2-46 3-52 39-21 125 90 216 250 205 39-3 86-10 105-15zm-116-462c30-23 26-39-9-39-36 0-55 10-55 29 0 37 25 41 64 10zm166-39c0-23-7-35-32-50-40-24-48-25-48-3 0 17 57 83 72 83 4 0 8-14 8-30zm-421-35c18-17 24-35 25-67 1-77-12-117-43-133-27-14-31-13-68 14-60 43-83 78-83 123 0 85 106 125 169 63zm1817-67c62-22 158-84 196-124 40-43 58-106 65-223l6-103-44 6c-57 9-188 74-261 129-77 58-223 191-248 226l-20 29 49 36c79 58 148 65 257 24zm-1566-1c0-2-14-43-30-93-111-326-220-778-269-1117-10-70-22-131-25-134-12-12-37 23-47 63-4 21-6 62-3 89 12 112 57 332 74 365 31 60 60 169 85 325 50 303 84 405 155 469 34 31 60 45 60 33zm-2093-97c42-11 146-53 232-91 304-138 384-167 504-184 45-6 50-9 67-48 32-76 75-123 137-153 54-27 66-29 166-28l107 2-28-33c-22-24-33-53-46-121-10-49-51-233-91-409-119-520-156-725-174-978-12-157-6-187 62-289 103-155 259-250 617-378 96-34 176-63 177-64s-2-31-7-66c-6-36-26-173-45-305-87-584-156-980-180-1033-34-75-118-158-254-250-135-93-191-145-221-208-20-40-22-57-18-164 5-119 5-121 51-214 26-51 119-203 208-337 158-238 182-279 162-279-6 0-69 17-142 39-72 21-131 37-131 35s24-19 53-37c77-50 107-89 107-142 0-24-5-47-12-51s-39-7-73-7c-117 2-247 72-381 207-116 117-144 162-161 260-29 171-92 315-273 631-157 273-205 380-241 533-17 72-19 94-10 152 21 133 35 144 110 81 25-21 61-48 80-59l34-21 14 26c17 33 17 46-7 188-11 66-20 140-20 165 0 113 53 124 196 42 49-29 100-52 113-52 24 0 24 1 18 78-16 190-54 279-134 314-40 18-62 20-171 17l-126-4-24 35c-20 29-23 44-20 88 7 77 44 112 157 147 171 52 221 87 221 154 0 71-56 104-225 135-107 20-179 42-221 67-33 20-194 254-194 281 0 22 87 89 123 95 20 3 72-5 131-21 151-40 186-34 186 31 0 103-104 181-391 293-87 33-176 74-198 91-82 59-101 127-55 195 30 43 40 52 103 95 54 35 108 38 257 14 53-9 110-13 125-10 64 14 90 105 49 172-29 48-89 82-242 135-176 61-207 77-257 135-66 76-67 122-3 180 47 43 79 51 258 63 175 12 247 29 271 66 15 24 15 29 2 52-23 41-117 111-251 186-206 116-257 152-274 193-34 81-55 266-37 332 13 50 121 64 240 31zm2169-79c-7-78-33-179-116-441-80-255-109-375-117-483-4-66-9-84-16-71-16 28-1 210 28 339 15 66 67 257 116 425 49 167 89 311 89 320 1 11 3 10 12-4 6-12 8-44 4-85zm-467-128c85-43 80-56-20-48-52 4-94 3-111-4-23-9-29-7-38 9-14 26-13 67 3 74 26 12 113-5 166-31zm-29-192c5-11 10-35 10-54 0-47-38-167-55-173-37-15-115 58-115 108 0 88 126 182 160 119zm-305-122c-23-63-19-125 10-175 24-41 48-59 204-157 67-42 81-64 26-41-52 21-96 17-163-17-149-74-268-297-232-436 23-96 84-144 205-163l68-11 46 39c55 47 88 65 101 57 28-17-9-151-84-310-52-109-100-157-182-181-72-21-129-14-212 27-143 70-199 224-134 370 17 39 116 437 178 719 35 157 48 264 35 288-10 18-8 21 17 25 15 2 50 5 79 6l52 1-14-41zm955-206c19-25 21-38 18-110-1-45-6-84-10-88s-40-12-82-18c-93-13-152 1-167 39-18 50 46 145 126 187 48 26 90 21 115-10zm-740-333c13-13 20-33 20-57 0-50-40-184-57-190-27-11-104 9-133 33-21 18-30 35-30 57 0 72 89 163 173 176 4 0 16-8 27-19zm390-290c11-11 20-33 20-48 0-45-46-124-87-151l-37-24-28 34c-59 70-55 151 10 191 38 24 97 23 122-2zm1104-484c15-44 31-87 36-95 6-11-8-32-49-78-66-74-128-173-137-219-8-43 14-85 50-97 42-14 124 7 221 57l82 42 42-75 42-76-22-15c-104-69-164-117-190-152-37-51-43-76-30-111 20-53 104-69 269-52l72 7v-26c0-22-10-31-67-59-38-19-111-50-165-71-105-40-173-83-190-121-16-36 6-80 49-101 77-36 250 2 318 70l25 25-1-77c-1-86-16-151-39-163-8-4-85-41-170-82-249-120-328-211-251-288 25-25 37-29 81-29 29 0 85 11 127 25s77 24 79 22c3-2-30-76-72-163-176-370-236-529-274-734-11-63-42-191-68-285-42-153-46-181-47-280 0-97 3-116 25-160 24-51 111-145 133-145 7 0 39-13 72-28 142-68 179-193 95-325l-28-45-46 9c-69 13-93 29-188 127-59 62-112 105-169 138-45 27-112 78-149 114-227 224-272 535-164 1125 20 107 35 159 65 220 94 197 78 291-91 525-105 145-143 215-170 310-44 159-37 293 23 412 32 65 85 122 334 358 116 111 122 119 181 235 33 66 97 203 142 305 82 184 99 220 149 294l26 39 6-114c5-86 13-134 33-193zm-2013-107c36-25 63-98 56-145-3-19-19-57-34-82-15-26-30-65-33-86-10-81-50-42-95 94-33 100-40 151-26 193 19 58 73 69 132 26zm466-174c27-8 58-24 68-35 40-44 10-119-74-189-58-49-88-61-150-61-45 0-52 3-95 50-50 53-66 85-66 130 0 87 178 146 317 105zm-2566-226c24-10 27-16 32-88 11-146 77-301 128-301 33 0 50 43 62 162 7 62 17 113 22 113 6 0 35-9 67-19 55-19 56-20 51-52-7-40 25-110 73-161 19-20 34-37 34-38s-35-8-77-16c-109-19-281-17-368 5-144 37-270 129-337 246-39 67-46 104-10 48 18-27 50-58 78-74 45-26 47-27 60-9 8 10 14 42 14 69 0 57 14 116 30 126 15 9 108 1 141-11zm630-262c23-27 39-50 37-52-5-5-136-55-145-55-10 0 5 158 18 182l12 22 19-25c10-13 37-46 59-72z"
        transform="matrix(.1 0 0 -.1 0 1280)"
      ></path>
      <path
        d="M4415 12075c16-22 99-130 185-240s159-205 163-212c11-17-72-71-171-109-47-19-99-45-117-58-30-24-102-123-94-130 2-2 101 49 219 115 206 113 215 120 238 165l24 47-79 79c-150 153-397 383-368 343zM6585 11673c-77-47-167-98-200-114-71-34-96-53-130-98-50-69-29-95 56-70l37 12 107-93c59-52 120-111 136-133 34-47 38-31 14 50-14 46-21 54-69 82-50 28-78 57-119 121l-17 26 170 148c94 81 170 150 170 152 0 10-23-3-155-83zM5026 11266c-37-14-85-51-75-59 2-2 58-23 124-47 145-52 237-97 289-142 33-29 41-43 45-82 6-46 6-46 29-31 102 72-142 347-328 369-27 4-60 0-84-8zM5985 11056c-90-28-145-75-145-122 0-21 5-24 38-24 20 0 75 10 122 21 55 14 120 22 183 23 84 1 98 3 103 19 8 26-22 66-61 83-43 17-185 18-240 0zM5950 7170c0-5 5-10 11-10 5 0 7 5 4 10-3 6-8 10-11 10-2 0-4-4-4-10zM4896 4005c-9-26-7-32 5-12 6 10 9 21 6 23-2 3-7-2-11-11z"
        transform="matrix(.1 0 0 -.1 0 1280)"
      ></path>
    </svg>
    <svg
      xmlns="http://www.w3.org/2000/svg"
      version="1.0"
      width=".25em"
      height=".25em"
      viewBox="0 0 1280.000000 776.000000"
      preserveAspectRatio="xMidYMid meet"
      fill="currentColor"
    >
      <g
        transform="translate(0.000000,776.000000) scale(0.100000,-0.100000)"
        stroke="none"
      >
        <path d="M2236 2902 c-61 -65 -194 -113 -366 -134 -190 -22 -443 -5 -1040 71 -129 17 -275 33 -324 37 -84 7 -88 6 -83 -12 3 -10 11 -44 17 -74 7 -30 77 -318 156 -640 174 -711 220 -918 264 -1205 11 -71 20 -138 20 -147 0 -16 -14 -17 -127 -17 -216 0 -380 -32 -523 -102 -229 -113 -293 -283 -159 -424 86 -91 206 -141 364 -152 263 -17 491 112 610 347 83 163 88 272 24 546 -44 193 -141 540 -246 884 -149 490 -250 847 -241 854 2 2 133 -23 293 -55 405 -81 545 -101 770 -106 205 -6 328 7 455 46 35 11 66 19 67 17 10 -10 86 -430 218 -1201 31 -181 72 -413 91 -515 19 -102 36 -191 37 -198 1 -10 -32 -14 -143 -17 -255 -7 -430 -44 -598 -125 -205 -101 -300 -248 -247 -385 25 -68 86 -139 139 -164 129 -60 368 -25 591 86 113 57 193 113 272 194 74 75 117 151 133 234 12 57 8 82 -74 555 -48 272 -139 792 -202 1155 -63 363 -116 664 -117 668 -1 4 -15 -5 -31 -21z" />
        <path d="M5254 3724 c-126 -128 -348 -200 -725 -234 -64 -5 -316 -15 -560 -20 -244 -5 -467 -13 -495 -16 l-51 -6 24 -92 c14 -50 67 -239 120 -421 52 -181 137 -478 189 -660 103 -355 187 -685 229 -891 26 -129 54 -306 49 -312 -1 -2 -50 -10 -109 -18 -215 -30 -411 -92 -553 -176 -77 -45 -183 -151 -218 -218 -26 -50 -29 -64 -29 -155 0 -97 1 -102 39 -172 21 -40 58 -90 81 -112 173 -160 551 -38 769 248 149 196 217 451 195 733 -17 233 -61 417 -219 933 -82 265 -160 526 -160 535 0 7 148 25 345 40 320 25 398 32 517 50 207 31 342 70 516 147 57 25 104 44 106 42 5 -5 161 -645 236 -964 34 -143 79 -331 101 -419 22 -87 39 -160 37 -161 -2 -1 -45 -8 -96 -14 -204 -25 -435 -102 -588 -195 -334 -202 -439 -477 -267 -703 121 -159 609 -2 909 293 163 162 255 366 240 534 -3 36 -96 454 -206 930 -110 476 -235 1017 -278 1202 -42 186 -79 337 -82 336 -3 -1 -33 -29 -66 -64z m18 -446 c21 -50 36 -93 34 -95 -13 -13 -196 -86 -282 -112 -186 -57 -322 -77 -767 -116 -161 -14 -337 -32 -391 -40 -55 -8 -103 -12 -107 -8 -9 11 -63 222 -58 228 12 11 195 25 456 35 575 21 755 50 973 158 52 26 97 46 99 44 3 -1 22 -43 43 -94z" />
        <path d="M7516 4674 c-19 -23 -43 -39 -72 -46 -32 -9 -43 -16 -39 -28 2 -8 27 -107 55 -220 28 -113 96 -369 151 -570 165 -601 198 -723 264 -995 74 -304 116 -503 148 -708 l24 -147 -126 0 c-642 -1 -1100 -200 -1101 -481 -1 -236 379 -424 770 -381 131 15 266 57 370 115 96 54 239 196 295 292 158 272 156 368 -27 1005 -62 217 -140 466 -256 821 -229 694 -301 920 -342 1074 -12 44 -24 89 -27 100 -3 11 86 -71 198 -181 180 -178 247 -234 276 -234 5 0 15 44 23 98 24 167 36 145 -130 229 -138 71 -198 113 -340 237 -36 31 -69 56 -75 55 -5 0 -23 -16 -39 -35z" />
        <path d="M9818 6329 c-27 -28 -55 -49 -68 -49 -11 0 -23 -7 -26 -15 -7 -18 59 -341 172 -845 322 -1429 381 -1732 459 -2345 l5 -40 -172 0 c-250 -1 -439 -33 -623 -104 -279 -108 -450 -307 -432 -503 15 -169 177 -336 390 -403 307 -98 638 -23 851 190 114 113 197 251 267 440 33 89 33 91 34 270 0 166 -3 192 -33 340 -76 362 -202 876 -337 1370 -261 957 -404 1515 -388 1515 6 0 22 -19 185 -220 77 -96 162 -197 187 -223 43 -45 98 -84 107 -75 6 7 28 201 29 256 l0 54 -135 81 c-120 73 -151 98 -273 220 -76 75 -141 137 -145 136 -4 0 -28 -22 -54 -50z" />
        <path d="M11954 7715 c-29 -47 -78 -85 -108 -85 -12 0 -15 -6 -11 -22 2 -13 23 -126 45 -253 44 -246 121 -649 220 -1150 210 -1060 320 -1723 368 -2211 l8 -82 -206 -5 c-156 -3 -230 -10 -308 -26 -233 -49 -426 -145 -554 -278 -117 -121 -163 -234 -156 -383 4 -78 9 -98 43 -167 55 -112 160 -216 275 -271 244 -117 510 -106 737 29 175 106 341 334 427 592 57 170 60 191 60 387 0 168 -4 204 -37 390 -84 473 -190 957 -452 2065 -165 697 -282 1232 -271 1242 4 5 96 -119 233 -317 118 -170 170 -235 210 -261 39 -26 43 -24 43 18 0 21 8 98 17 172 l17 134 -35 30 c-19 16 -79 60 -134 97 -109 74 -178 141 -305 295 -45 55 -86 101 -90 103 -4 1 -20 -18 -36 -43z" />
      </g>
    </svg>